<?xml version="1.0" encoding="utf-8"?>
<!-- Generator: Adobe Illustrator 23.1.0, SVG Export Plug-In . SVG Version: 6.00 Build 0)  -->
<svg version="1.1" id="Layer_1" xmlns="http://www.w3.org/2000/svg" xmlns:xlink="http://www.w3.org/1999/xlink" x="0px" y="0px"
	 viewBox="0 0 1700 620" style="enable-background:new 0 0 1700 620;" xml:space="preserve">
<style type="text/css">
	.st0{fill:#FFFFFF;}
	.st1{font-family:'PixelMillennium';}
	.st2{font-size:361.268px;}
	.st3{opacity:0.46;fill:#FFFFFF;}
</style>
<text transform="matrix(1 0 0 1 682.5464 446.709)" class="st0 st1 st2">Tik Tik</text>
<g>
	<g>
		<g>
			<g>
				<g>
					<g>
						<path class="st0" d="M138,85.3C113,59.1,71.6,58.1,45.5,83.1c-25.7,24.5-27.1,65-3.3,91.3c4.9,5.3,13.2,5.6,18.5,0.7
							l76.6-71.3C142.6,98.8,142.9,90.5,138,85.3z"/>
					</g>
				</g>
				<g>
					<g>
						<path class="st0" d="M501.8,93.7c-24.6-26.4-66-27.9-92.5-3.3c-5.3,4.9-5.6,13.2-0.7,18.5l71.3,76.6
							c4.9,5.3,13.2,5.6,18.5,0.7C524.9,161.6,526.4,120.2,501.8,93.7z"/>
					</g>
				</g>
			</g>
			<g>
				<g>
					<path class="st0" d="M477.7,243.4c-11.2-26.6-27.3-50.4-47.8-70.9c-20.5-20.5-44.3-36.6-70.9-47.8
						c-27.5-11.6-56.7-17.5-86.9-17.5s-59.3,5.9-86.9,17.5c-26.6,11.2-50.4,27.3-70.9,47.8c-20.5,20.5-36.6,44.3-47.8,70.9
						C54.9,270.9,49,300.1,49,330.3c0,30.1,5.9,59.3,17.5,86.9c11.2,26.6,27.3,50.4,47.8,70.9c20.5,20.5,44.3,36.6,70.9,47.8
						c27.5,11.6,56.7,17.5,86.9,17.5s59.3-5.9,86.9-17.5c26.6-11.2,50.4-27.3,70.9-47.8c20.5-20.5,36.6-44.3,47.8-70.9
						c11.6-27.5,17.5-56.7,17.5-86.9C495.3,300.1,489.4,270.9,477.7,243.4z M280.2,139.9v-16.6c108,4.1,194.8,90.9,198.9,198.9
						h-24.1c0-0.1,0-0.3,0-0.4c-0.3,0.5-0.7,1.1-1.1,1.6c0.8,2.4,1.3,5,1.4,7.6c0.1,2.4-0.2,4.8-0.9,7c0.2,0.1,0.4,0.2,0.5,0.4
						c0,0,0-0.1,0-0.1H479c-4.1,108-90.9,194.8-198.9,198.9v-25.5h-16.1v25.5c-108-4.1-194.8-90.9-198.9-198.9h25.5v-16.1H65.2
						c4.1-108,90.9-194.8,198.9-198.9v16.5"/>
					<path class="st0" d="M272.1,554.6c-30.3,0-59.7-5.9-87.3-17.6c-26.7-11.3-50.7-27.5-71.3-48.1c-20.6-20.6-36.8-44.6-48.1-71.3
						c-11.7-27.7-17.6-57.1-17.6-87.3s5.9-59.7,17.6-87.3c11.3-26.7,27.5-50.7,48.1-71.3c20.6-20.6,44.6-36.8,71.3-48.1
						c27.7-11.7,57.1-17.6,87.3-17.6s59.7,5.9,87.3,17.6c26.7,11.3,50.7,27.5,71.3,48.1c20.6,20.6,36.8,44.6,48.1,71.3l0,0
						c11.7,27.7,17.6,57.1,17.6,87.3s-5.9,59.7-17.6,87.3c-11.3,26.7-27.5,50.7-48.1,71.3c-20.6,20.6-44.6,36.8-71.3,48.1
						C331.8,548.7,302.4,554.6,272.1,554.6z M272.1,108.4c-29.9,0-59,5.9-86.4,17.4c-26.4,11.2-50.1,27.2-70.5,47.5
						c-20.4,20.4-36.4,44.1-47.5,70.5c-11.6,27.4-17.4,56.4-17.4,86.4c0,29.9,5.9,59,17.4,86.4c11.2,26.4,27.2,50.1,47.5,70.5
						c20.4,20.4,44.1,36.4,70.5,47.5c27.4,11.6,56.4,17.4,86.4,17.4s59-5.9,86.4-17.4c26.4-11.2,50.1-27.2,70.5-47.5
						c20.4-20.4,36.4-44.1,47.5-70.5c11.6-27.4,17.4-56.4,17.4-86.4c0-29.9-5.9-59-17.4-86.4c-11.2-26.4-27.2-50.1-47.5-70.5
						c-20.4-20.4-44.1-36.4-70.5-47.5C331.1,114.3,302.1,108.4,272.1,108.4z M278.9,538.4v-25.6h-13.6v25.6l-1.3,0
						c-52.5-2-102-23.6-139.2-60.9C87.6,440.3,66,390.9,64,338.3l0-1.3h25.6v-13.6H63.9l0-1.3c2-52.5,23.6-102,60.9-139.2
						c37.2-37.2,86.7-58.9,139.2-60.9l1.3,0v17.8h-2.5v-15.2C157.1,129.4,71.2,215.2,66.5,321H92v18.6H66.5
						c4.7,105.8,90.6,191.6,196.3,196.3v-25.5h18.6v25.5c105.7-4.7,191.6-90.6,196.3-196.3h-21.6l0,1l-2-1.2
						c-0.1-0.1-0.2-0.2-0.3-0.2l-0.8-0.5l0.3-0.9c0.6-2.2,0.9-4.4,0.8-6.6c-0.1-2.5-0.6-4.9-1.4-7.3l-0.2-0.6l0.4-0.5
						c0.4-0.5,0.7-1,1-1.5l2.1-3.4l0.2,3.3h21.6c-4.7-105.8-90.6-191.6-196.3-196.3v15.3h-2.5v-17.9l1.3,0
						c52.5,2,102,23.6,139.2,60.9c37.2,37.2,58.9,86.7,60.9,139.2l0,1.3h-25c0,0.1-0.1,0.1-0.1,0.2c0.8,2.4,1.2,4.9,1.3,7.4
						c0.1,2-0.1,4-0.6,6h24.4l0,1.3c-2,52.5-23.6,102-60.9,139.2c-37.2,37.2-86.7,58.9-139.2,60.9L278.9,538.4z"/>
				</g>
			</g>
			<path class="st3" d="M264.1,522.1c0-3.2,0-7.2,0-10.2"/>
		</g>
		<path class="st0" d="M225.2,469.4c0-0.4-0.1-0.8-0.1-1.2c-2.1,0.3-4.3,0.4-6.6,0.3c-18.6-0.3-11.1,20.6,0,18.2
			c2.1-0.4,5.2-0.9,8.9-1.6C226.3,480,225.7,474.8,225.2,469.4z"/>
		<g>
			<path class="st0" d="M191.9,202c-37.6,5.7-57.1,33-57.9,34.2c-2.8,4-1.9,9.6,2.2,12.5c4,2.8,9.6,1.9,12.5-2.2
				c0.2-0.2,16.2-22.3,46-26.8c22.8-3.4,49.3,6.3,77.5,18.8v-19.5C244,206.9,217.2,198.1,191.9,202z"/>
			<path class="st0" d="M391.6,257.5c16.3-3,18.5-12.2,19.2-15.3c0.7-3.1,0.3-5.5-1.3-7.7c-5.9-8-24.8-12.2-35.3-12.9l-0.2,0
				c-33.7-3.2-54.4,5-66.2,13.3c19.9,9,40.1,17.6,59.6,22.2C370.5,257.8,381.2,259.3,391.6,257.5z"/>
			<path class="st0" d="M276.5,240.4c-1.5-0.7-2.9-1.3-4.4-1.9v6.8C273.5,243.6,274.9,242,276.5,240.4z"/>
			<path class="st0" d="M421.7,450.3c26.4-32.9,42.2-74.6,42.2-120.1c0-105.9-85.9-191.8-191.8-191.8v80.4c5.7,2.4,11.5,5,17.3,7.7
				c4.4-4,9.4-7.6,15-10.8c19.1-10.7,43-14.7,71.1-12.1c4.1,0.3,35.8,3.1,48.4,20.1c4.8,6.5,6.3,14.3,4.4,22.5
				c-3.6,15.3-15.5,25.5-33.4,28.8c-12.8,2.3-25.9,0.7-31.6-0.6c-23.2-5.4-46.5-15.8-69.1-26.1c-0.3,0.3-0.5,0.6-0.9,0.9
				c-20,17.1-20.6,41.2-20.9,51.6c0,1.1-0.1,2.1-0.1,2.9l0,0v-58.5c-16.8,20.7-17.5,45-17.8,55.1c0,1.2-0.1,2.7-0.1,3.2
				c-1.1,9.8,0.4,21.8,2.4,38.4c2.4,18.9,5.6,44.9,5.9,78.5c0.1,18.7-4.2,32.1-12.9,40.1c-10,9.2-23.1,8.5-25.6,8.2
				c-4.9-0.5-9.2,2.9-9.8,7.7c-0.7,4.7,2.6,9.2,7.3,10c0.4,0.1,0.8,0.1,1.2,0.1c1,0.1,2.4,0.2,4.1,0.2c8,0,22.7-1.8,35-13.1
				c12.6-11.5,18.8-29.5,18.7-53.4c-0.3-34.7-3.6-61.2-6-80.6c-0.4-2.9-0.7-5.7-1-8.4l1.6,1.2L421.7,450.3z M223.6,486.6
				c1.2-0.1,2.4-0.4,3.5-0.9C226.1,486.2,224.9,486.5,223.6,486.6z"/>
		</g>
	</g>
	<g>
		<path class="st0" d="M273.5,116.4c118.8,0,215.1,96.3,215.1,215.1s-96.3,215.1-215.1,215.1S58.4,450.2,58.4,331.5
			S154.7,116.4,273.5,116.4 M273.5,99.9c-31.3,0-61.6,6.1-90.1,18.2c-27.6,11.7-52.3,28.4-73.6,49.6s-38,46-49.6,73.6
			c-12.1,28.6-18.2,58.9-18.2,90.1S48,393,60.1,421.6c11.7,27.6,28.4,52.3,49.6,73.6c21.3,21.3,46,38,73.6,49.6
			c28.6,12.1,58.9,18.2,90.1,18.2s61.6-6.1,90.1-18.2c27.6-11.7,52.3-28.4,73.6-49.6c21.3-21.3,38-46,49.6-73.6
			c12.1-28.6,18.2-58.9,18.2-90.1s-6.1-61.6-18.2-90.1c-11.7-27.6-28.4-52.3-49.6-73.6c-21.3-21.3-46-38-73.6-49.6
			C335,106,304.7,99.9,273.5,99.9L273.5,99.9z"/>
		<path class="st0" d="M273.5,564c-31.4,0-61.8-6.2-90.5-18.3c-27.7-11.7-52.6-28.5-73.9-49.8c-21.4-21.3-38.1-46.2-49.8-73.9
			c-12.1-28.7-18.3-59.1-18.3-90.5s6.2-61.8,18.3-90.5c11.7-27.7,28.5-52.6,49.8-73.9c21.4-21.4,46.2-38.1,73.9-49.8
			c28.7-12.1,59.1-18.3,90.5-18.3s61.8,6.2,90.5,18.3c27.7,11.7,52.6,28.5,73.9,49.8c21.4,21.4,38.1,46.2,49.8,73.9
			c12.1,28.7,18.3,59.1,18.3,90.5c0,31.4-6.2,61.8-18.3,90.5c-11.7,27.7-28.5,52.6-49.8,73.9c-21.4,21.4-46.2,38.1-73.9,49.8
			C335.3,557.8,304.9,564,273.5,564z M273.5,100.9c-31.1,0-61.3,6.1-89.7,18.1c-27.5,11.6-52.1,28.2-73.3,49.4
			c-21.2,21.2-37.8,45.8-49.4,73.3c-12,28.4-18.1,58.6-18.1,89.7c0,31.1,6.1,61.3,18.1,89.7c11.6,27.5,28.2,52.1,49.4,73.3
			c21.2,21.2,45.8,37.8,73.3,49.4c28.4,12,58.6,18.1,89.7,18.1s61.3-6.1,89.7-18.1c27.5-11.6,52.1-28.2,73.3-49.4
			c21.2-21.2,37.8-45.8,49.4-73.3c12-28.4,18.1-58.6,18.1-89.7c0-31.1-6.1-61.3-18.1-89.7c-11.6-27.5-28.2-52.1-49.4-73.3
			c-21.2-21.2-45.8-37.8-73.3-49.4C334.8,107,304.6,100.9,273.5,100.9z M273.5,547.5c-57.7,0-112-22.5-152.8-63.3
			s-63.3-95.1-63.3-152.8s22.5-112,63.3-152.8s95.1-63.3,152.8-63.3s112,22.5,152.8,63.3s63.3,95.1,63.3,152.8s-22.5,112-63.3,152.8
			S331.2,547.5,273.5,547.5z M273.5,117.4c-118,0-214.1,96-214.1,214.1c0,118,96,214.1,214.1,214.1s214.1-96,214.1-214.1
			C487.6,213.4,391.5,117.4,273.5,117.4z"/>
	</g>
</g>
</svg>
