<?xml version="1.0" encoding="utf-8"?>
<!-- Generator: Adobe Illustrator 21.1.0, SVG Export Plug-In . SVG Version: 6.00 Build 0)  -->
<svg version="1.1" id="Layer_1" xmlns="http://www.w3.org/2000/svg" xmlns:xlink="http://www.w3.org/1999/xlink" x="0px" y="0px"
	 viewBox="0 0 212 66" style="enable-background:new 0 0 212 66;" xml:space="preserve">
<style type="text/css">
	.st0{fill:#511D58;}
	.st1{fill:#1C75BC;}
	.st2{fill:#EC008C;}
	.st3{fill:#F7941E;}
	.st4{fill:#00A6A0;}
</style>
<path class="st0" d="M179.2,61.3h-16.2c-1.6,0-2.8-1.3-2.8-2.8v-7.8c0-1.6,1.3-2.8,2.8-2.8c1.6,0,2.8,1.3,2.8,2.8v5h13.4
	c12.8,0,23.2-10.4,23.2-23.2c0-12.8-10.4-23.2-23.2-23.2h-13.4v4.6c0,1.6-1.3,2.8-2.8,2.8c-1.6,0-2.8-1.3-2.8-2.8V6.5
	c0-1.6,1.3-2.8,2.8-2.8h16.2c15.9,0,28.8,12.9,28.8,28.8C208,48.4,195.1,61.3,179.2,61.3"/>
<path class="st1" d="M183,24.3h-36.3c-1.6,0-2.8-1.3-2.8-2.8c0-1.6,1.3-2.8,2.8-2.8H183c1.6,0,2.8,1.3,2.8,2.8
	C185.8,23,184.5,24.3,183,24.3"/>
<path class="st2" d="M166.2,34.8H133c-1.6,0-2.8-1.3-2.8-2.8c0-1.6,1.3-2.8,2.8-2.8h33.2c1.6,0,2.8,1.3,2.8,2.8
	C169.1,33.5,167.8,34.8,166.2,34.8"/>
<path class="st3" d="M173.4,45.3h-20.7c-1.6,0-2.8-1.3-2.8-2.8c0-1.6,1.3-2.8,2.8-2.8h20.7c1.6,0,2.8,1.3,2.8,2.8
	C176.3,44,175,45.3,173.4,45.3"/>
<path class="st4" d="M8.5,55.7c-1.8-0.1-3.3-0.8-4.4-2.1c-1-1.2-1.5-2.7-1.5-4.7l0-1c0.6-0.8,1.1-1.2,1.6-1.2c0.6,0,1.2,0.4,1.8,1.2
	l0,0.7c0.1,2.2,0.1,1.3,0.2,1.6c0.3,1.4,1.2,2.1,2.5,2.4c1.9,0,13.1,0,14.8,0c1.8,0,9.4,0,11.1,0c1.1-0.2,1.9-0.7,2.3-1.6
	c0.3-0.6,0.4-1.6,0.4-2.8v-0.8c0-0.5,0-0.8,0-0.8v-0.3c0.6-0.8,1.2-1.2,1.8-1.2c0.5,0,1.1,0.4,1.6,1.2v2.8c0,1.9-0.5,3.5-1.5,4.6
	c-1.1,1.3-2.6,2-4.4,2C30.7,55.8,11.8,55.8,8.5,55.7"/>
<path class="st4" d="M47.8,55.7c-0.5,1-1.1,1.5-1.6,1.5c-0.5,0-1-0.5-1.6-1.5V38.5c0.6-0.8,1.1-1.2,1.6-1.2c0.5,0,1.1,0.4,1.7,1.2
	V55.7z"/>
<path class="st4" d="M55.6,56.2c0,1.9-0.5,3.5-1.6,4.6c-0.9,1.1-2.4,1.7-4.5,1.9c-0.7-0.6-1-1.1-1-1.5c0-0.4,0.3-0.9,1-1.5
	c1.4-0.2,2.2-0.9,2.6-2.1c0.2-0.5,0.2-1.7,0.2-3.5V47c0.7-1.1,1.3-1.7,1.6-1.7c0.5,0,1,0.4,1.6,1.2V56.2z"/>
<path class="st4" d="M73.1,47.1l0,9.5c0,1.9-0.5,3.3-1.4,4.2c-0.9,0.9-2.4,1.5-4.3,1.6c-1-0.5-1.4-1.1-1.4-1.6c0-0.5,0.5-1,1.4-1.6
	c1.7-0.3,2.5-1.3,2.5-3c0-0.2-0.1-9-0.1-9c-0.3-1.5-1.1-2.4-2.6-2.6h0c-1.7,0-2.8,0.1-3.1,0.2c-0.9,0.3-1.5,1.2-1.7,2.5v0.6
	c0,0.2,0,0.7,0,1.5c0,1,0.2,1.7,0.5,2.1c0.4,0.6,1.2,1,2.3,1.2h2.6c0.6,0.6,0.9,1.1,0.9,1.5c0,0.5-0.3,1-0.9,1.6h-2.7
	c-1.9,0-3.4-0.7-4.4-2c-0.9-1.2-1.4-2.8-1.4-4.8v-1.8c0.3-3.9,2.4-5.8,6.2-5.8c0,0,3,0,3.1,0C71.6,42.1,73.1,44,73.1,47.1"/>
<path class="st4" d="M95.5,52.6v3.1c-1.9-0.2-3.3-0.8-4.4-1.9c-1.1,1.2-2.5,1.9-4.2,1.9h-9.4c-0.7-0.6-1.1-1.2-1-1.7
	c0.1-0.6,0.4-1,1-1.4h9.3c1.6-0.3,2.5-1.1,2.6-2.5c0-0.6,0-1.6,0-2.9c-0.2-1.1-0.7-1.9-1.6-2.3c-0.6-0.3-1.5-0.4-2.7-0.4l-4.1,0
	c-0.8-0.6-1.2-1.2-1.2-1.8c0-0.5,0.4-1,1.2-1.6h5c2.1,0,3.7,0.6,4.9,1.8c1.2,1.2,1.8,2.8,1.8,4.9c0,0.8,0.1,1.8,0.2,2.9
	C93.2,51.7,94.1,52.3,95.5,52.6"/>
<path class="st4" d="M103,41.1c-0.5,0-1.1-0.1-1.6,0.2c-0.1,0.1-0.3,0.1-0.4,0.1V47c0,1.8-0.1,3-0.2,3.5c-0.3,1.2-1.2,1.9-2.6,2.1
	h-2.6v3.1h2.6c1.4,0,2.6-0.3,3.7-1c1.7-1.1,2.5-3,2.5-5.6v-8.3C103.8,41,103.4,41,103,41.1"/>
<path class="st4" d="M111,55.7c-0.5,1-1.1,1.5-1.6,1.5c-0.5,0-1-0.5-1.6-1.5V38.5c0.6-0.8,1.1-1.2,1.6-1.2c0.5,0,1.1,0.4,1.7,1.2
	V55.7z"/>
<path class="st4" d="M102,46.1c0.8-0.2,1.5-0.1,2.2,0.2v-7.8c-0.6-0.8-1.1-1.2-1.7-1.2c-0.5,0-1,0.4-1.6,1.2v8.1
	C101.3,46.3,101.6,46.2,102,46.1"/>
<path class="st0" d="M40.7,20.8L40.7,20.8c0,1.9-0.5,3.3-1.4,4.3c-0.9,0.9-2.3,1.4-4.3,1.6c-0.3,0-25.7,0-26.4,0
	c-1.9-0.1-3.4-0.8-4.4-2c-1-1.2-1.5-2.7-1.5-4.6l0-3.3c0.6-0.8,1.1-1.2,1.6-1.2c0.6,0,1.2,0.4,1.8,1.2l0,0.8c0,1.2,0.1,2.4,0.2,3.7
	c0.3,1.3,1.1,2.1,2.5,2.3c0.4,0.1,25.7,0.1,26.4,0c1.6-0.2,2.4-1.2,2.5-2.9c0-0.3,0-0.6,0-1.1c0-0.5,0-0.9,0-1.1v-0.2
	c-0.2-1.5-1-2.4-2.4-2.6c-1.8,0-2.9,0-3,0.1c-1.1,0.4-1.8,1.2-2,2.6c0,0.2,0,0.4,0,0.7c0,0.1,0,0.3,0,0.7v0.7c0,1,0.1,1.7,0.4,2.1
	c0.4,0.6,1.1,1,2.3,1.2h2.6c0.1,0.1,0.3,0.3,0.5,0.5c0.3,0.4,0.5,0.7,0.5,1c0,0.4-0.3,1-0.9,1.6h-2.7c-1.9,0-3.4-0.7-4.4-2
	c-0.9-1.2-1.4-2.8-1.4-4.7v-1.8c0.3-3.9,2.3-5.8,5.9-5.8h3.2c1.6,0.4,2.7,1,3.5,1.9c0.9,1,1.3,2.3,1.3,3.8v-0.3"/>
<path class="st0" d="M56.4,24.8c-1.1,1.1-2.5,1.8-4.4,1.9v-3.1c1.8-0.3,2.7-1.6,2.7-3.8v-1.8c0-0.2,0-0.3,0-0.4v-2.5
	c0.6-0.8,1.2-1.2,1.6-1.2l0.1,0l0.1,0c0.5,0,1,0.4,1.6,1.2v2.9c0,0.2,0,0.3,0,0.4v1.4c0,2.2,0.9,3.5,2.7,3.8v3.1
	C59,26.6,57.5,25.9,56.4,24.8"/>
<path class="st0" d="M70,24.8c-1.1,1.1-2.5,1.8-4.4,1.9v-3.1c1.8-0.3,2.7-1.6,2.7-3.8v-1.8c0-0.2,0-0.3,0-0.4v-2.5
	c0.6-0.8,1.2-1.2,1.6-1.2l0.1,0l0.1,0c0.5,0,1,0.4,1.6,1.2v2.9c0,0.2,0,0.3,0,0.4v1.4c0,2.2,0.9,3.5,2.7,3.8v3.1
	C72.6,26.6,71.1,25.9,70,24.8"/>
<path class="st0" d="M98.1,23.6h6.8v3.1H74.4l0.1-3.1H77c-0.4-0.8-0.6-1.8-0.7-2.9c0-0.2,0-13,0-13c0.5-0.9,1-1.3,1.5-1.4
	c0.5,0,1.1,0.4,1.7,1.4l0,5.1c0.9-0.5,1.8-0.7,2.6-0.7h10.1c1.9,0,3.5,0.5,4.6,1.5c1.2,1,1.8,2.5,2,4.4c0,0.2,0,1.3,0,1.8
	C98.8,21.3,98.6,22.5,98.1,23.6 M83.2,23.6h9.7c1.1-0.2,1.9-0.6,2.3-1.2c0.3-0.4,0.5-1.1,0.5-2.1c0-0.7,0-2.1,0-2.1
	c-0.2-1.3-0.8-2.1-1.7-2.4c-0.6-0.2-11.8-0.3-11.8-0.3c-1.8,0.3-2.7,1.1-2.7,2.4v2.7C79.8,22.6,81,23.6,83.2,23.6"/>
<path class="st0" d="M111,20c0,1.9-0.5,3.5-1.6,4.7c-1.1,1.2-2.6,1.8-4.5,2v-3.1c1.1-0.2,1.9-0.7,2.3-1.6c0.3-0.7,0.5-1.6,0.5-2.8
	c0-0.8,0-4.1,0-4.1c0.6-0.8,1.2-1.2,1.8-1.2c0.5,0,1,0.4,1.6,1.2V20z"/>
<rect x="60.8" y="23.6" class="st0" width="4.8" height="3.1"/>
<rect x="35.2" y="23.6" class="st0" width="16.8" height="3.1"/>
<path class="st0" d="M31.9,5.8c-0.3-0.3-0.7-0.3-1,0l-1.5,1.5c-0.3,0.3-0.3,0.7,0,1l1.5,1.5c0.3,0.3,0.7,0.3,1,0l1.5-1.5
	c0.3-0.3,0.3-0.7,0-1L31.9,5.8z"/>
<path class="st0" d="M38.5,7.3L37,5.8c-0.3-0.3-0.7-0.3-1,0l-1.5,1.5c-0.3,0.3-0.3,0.7,0,1L36,9.8c0.3,0.3,0.7,0.3,1,0l1.5-1.5
	C38.7,8,38.7,7.6,38.5,7.3"/>
<path class="st0" d="M44.2,28.9c-0.3-0.3-0.7-0.3-1,0l-1.5,1.5c-0.3,0.3-0.3,0.7,0,1l1.5,1.5c0.3,0.3,0.7,0.3,1,0l1.5-1.5
	c0.3-0.3,0.3-0.7,0-1L44.2,28.9z"/>
<path class="st0" d="M50.7,30.3l-1.5-1.5c-0.3-0.3-0.7-0.3-1,0l-1.5,1.5c-0.3,0.3-0.3,0.7,0,1l1.5,1.5c0.3,0.3,0.7,0.3,1,0l1.5-1.5
	C51,31.1,51,30.6,50.7,30.3"/>
<path class="st0" d="M102.1,5.8c-0.3-0.3-0.7-0.3-1,0l-1.5,1.5c-0.3,0.3-0.3,0.7,0,1l1.5,1.5c0.3,0.3,0.7,0.3,1,0l1.5-1.5
	c0.3-0.3,0.3-0.7,0-1L102.1,5.8z"/>
<path class="st0" d="M108.6,7.3l-1.5-1.5c-0.3-0.3-0.7-0.3-1,0l-1.5,1.5c-0.3,0.3-0.3,0.7,0,1l1.5,1.5c0.3,0.3,0.7,0.3,1,0l1.5-1.5
	C108.9,8,108.9,7.6,108.6,7.3"/>
<path class="st0" d="M65.2,30.3l-1.5-1.5c-0.3-0.3-0.7-0.3-1,0l-1.5,1.5c-0.3,0.3-0.3,0.7,0,1l1.5,1.5c0.3,0.3,0.7,0.3,1,0l1.5-1.5
	C65.5,31.1,65.5,30.6,65.2,30.3"/>
<path class="st4" d="M24.2,40.5c-0.3-0.3-0.7-0.3-1,0l-1.5,1.5c-0.3,0.3-0.3,0.7,0,1l1.5,1.5c0.3,0.3,0.7,0.3,1,0l1.5-1.5
	c0.3-0.3,0.3-0.7,0-1L24.2,40.5z"/>
<path class="st4" d="M30.8,41.9l-1.5-1.5c-0.3-0.3-0.7-0.3-1,0l-1.5,1.5c-0.3,0.3-0.3,0.7,0,1l1.5,1.5c0.3,0.3,0.7,0.3,1,0l1.5-1.5
	C31,42.7,31,42.2,30.8,41.9"/>
</svg>
